<?xml version="1.0" encoding="utf-8"?>
<!-- Generator: Adobe Illustrator 27.5.0, SVG Export Plug-In . SVG Version: 6.00 Build 0)  -->
<svg version="1.1" xmlns="http://www.w3.org/2000/svg" xmlns:xlink="http://www.w3.org/1999/xlink" x="0px" y="0px"
	 viewBox="0 0 1000 1000" style="enable-background:new 0 0 1000 1000;" xml:space="preserve">
<g id="BG">
	<rect style="fill:none;" width="1000" height="1000"/>
</g>
<g id="Object">
	<g>
		<path style="fill:#fff;" d="M191.538,472.686c-0.124,1.054-1.283,7.8,0.506,7.862c2.29,0.08,1.104-6.134,1.137-7.139
			C192.542,473.347,191.995,473.103,191.538,472.686z"/>
		<path style="fill:#fff;" d="M891.866,455.509c2.068,1.406,3.26,3.288,3.576,5.64c-1.032,1.418-2.361,1.696-3.98,0.834
			c-0.427,6.79-0.721,13.586-0.878,20.388c0.115,0.173,0.232,0.343,0.349,0.516c0.346,0.105,0.692,0.191,1.045,0.266h0.003
			c0.903-0.695,1.808-1.388,2.71-2.086c1.125,0.238,2.253,0.482,3.378,0.726c0.281-14.686,1.144-29.378,2.126-44.03
			c-2.479-0.454-4.765-1.329-6.864-2.624C892.771,441.924,892.311,448.717,891.866,455.509z"/>
		<path style="fill:#fff;" d="M764.976,547.466c0.405,0.624,0.875,0.711,1.412,0.253c0.889,0.161,2.537,0.394,4.775,0.681
			c-11.806-2.264-22.729-4.565-31.35-6.58C748.174,544.315,756.816,545.995,764.976,547.466z"/>
		<path style="fill:#fff;" d="M700.456,517.834c0.402,0.138,0.789,0.235,1.161,0.285c-0.412-0.58-0.815-1.17-1.213-1.765
			C700.356,516.95,700.388,517.598,700.456,517.834z"/>
		<path style="fill:#fff;" d="M771.163,548.4c41.321,7.924,93.345,15.378,94.425,8.374
			C865.315,558.55,792.094,551.085,771.163,548.4z"/>
		<path style="fill:#fff;" d="M702.351,444.461c-0.247,0.111-0.494,0.223-0.742,0.337c-0.083-0.309-0.167-0.615-0.25-0.921
			c-21.7,17.079-16.071,49.929-0.956,72.478c0.042-0.54,0.149-1.036,0.359-1.135C687.851,496.652,686.25,461.894,702.351,444.461z"
			/>
		<path style="fill:#fff;" d="M702.762,518.081c-0.357,0.087-0.741,0.091-1.145,0.038c5.787,8.155,12.815,14.797,20.173,18.598
			c2.119,1.094,8.735,2.932,18.024,5.103C725.249,537.474,711.544,530.646,702.762,518.081z"/>
		<path style="fill:#fff;" d="M702.756,440.437c0.29,0.374,0.581,0.745,0.871,1.119c0.832-0.275,1.496-0.757,2.139-1.27
			c-1.001-0.053-2.002-0.108-3.006-0.161C702.759,440.23,702.756,440.332,702.756,440.437z"/>
		<path style="fill:#fff;" d="M908.629,596.128c-0.597,0.034-0.835,1.128-1.119,3.118c0.213-0.13,0.43-0.256,0.646-0.38
			c-0.092,3.616-0.899,1.993-1.783,1.048c-0.191-0.043-0.414-0.049-0.568-0.142c0.154,0.093,0.377,0.099,0.568,0.142
			c0.328-0.192,0.659-0.386,0.986-0.581c-1.523-24.544-5.584-48.99-7.627-73.512c-1.764,1.455-6.014,1.871-7.66,0.545
			c1.391,23.873,1.357,59.371,13.764,78.24c0.328,0.108,0.662,0.247,1.004,0.461c-0.006-0.015-0.006-0.031-0.006-0.031l0.108,0.083
			c-0.034-0.022-0.068-0.031-0.102-0.053c0.791,3.044,3.106,7.553-1.65,7.309c-0.031-0.578-0.028-1.165-0.052-1.743
			c-2.936,8.842-9.021,16.874-17.257,21.386c2.55,0.584,3.925-1.014,5.235-2.732c0.167,2.006,0.247,4.005-0.686,5.906
			c-4.057-1.258-5.071,2-8.789,0.921c1.023-1.159,2.046-2.318,3.068-3.48c-33.722,16.75-73.966,13.521-110.254,13.499
			c0.133,0.902-1.28,0.136-1.4,0.077c0.037-0.028,0.074-0.053,0.111-0.077c-8.99-0.012-17.987-0.034-26.98,0.099
			c-1.004,3.783-0.757,2.525-0.628,6.323c35.407-0.059,72.929,4.898,107.789-2.37c13.679-2.852,30.284-6.218,41.319-15.542
			C898.125,633.411,921.491,595.142,908.629,596.128z"/>
		<path style="fill:#fff;" d="M892.071,526.365c-0.057-0.985-0.117-1.951-0.18-2.894
			C891.123,524.828,891.334,525.772,892.071,526.365z"/>
		<path style="fill:#fff;" d="M891.678,520.532c0.076,0.951,0.146,1.937,0.213,2.938c0.194-0.343,0.443-0.709,0.769-1.106
			C892.673,521.481,892.311,520.897,891.678,520.532z"/>
		<path style="fill:#fff;" d="M201.837,531.324c0.031,0,0.059,0.006,0.086,0.019c0.06,0.012,0.031,0.006-0.083-0.019H201.837z"/>
		<path style="fill:#fff;" d="M740.339,646.845c0.21-0.167,0.426-0.334,0.649-0.498c-29.576,0.55-59.133-1.245-88.69-0.068
			c0.445,6.37-7.117,4.796-7.327,0.272c-26.037,0.887-52.22-0.42-78.244-0.964c0.371,0.269,0.705,0.596,1.057,0.893
			c-0.538,0.284-1.081,0.575-1.625,0.859c-1.165-0.368-1.047-1.31-0.365-1.774c-32.969-0.689-67.205,0.674-99.373-7.683
			c0.427,0.451,0.73,0.952,0.859,1.585c-1.885,0.757-3.814,1.382-5.782,1.873c-0.359-3.378-3.972-4.555-5.928-6.719
			c-14.154-5.167-27.221-12.529-38.025-23.185c-17.542-17.297-16.12-33.642-23.364-55.155c-6.305-18.722-22.81-27.622-41.378-32.548
			c-29.854-7.918-66.59-5.371-97.398-5.142c-13.972,0.105-42.454-6.023-54.698,4.089c-0.009-1.218,0.145-8.4-1.808-8.162
			c-2.76,0.343-0.117,8.217,0.021,10.041c-0.828,1.119-1.403,2.411-1.696,3.77c-3.768,1.109-7.816,1.925-11.707,2.466
			c0.658-1.437-4.5-41.486-3.953-41.474c-4.747-0.108-0.136,24.699-0.148,26.504c0.479,0.649,0.528,1.076,0.148,1.286
			c0.352,1.103,0.908,1.703,0.686,2.964c0.649,0.423,1.146,0.967,1.486,1.635c-0.043,0.188-0.046,0.377-0.009,0.559
			c-0.544,0.009-1.066-0.083-1.567-0.278c0.625,2.512,0.173,6.913,2.126,8.975c-1.749,0.423-3.498,0.85-5.251,1.273
			c-2.188,11.84,28.213-4.725,29.628-5.071c24.881-6.066,60.953,1.796,86.888,2.723c0.244-2.757,1.397-3.304,3.462-1.644
			c-0.93,0.522-1.653,1.375-2.723,1.669c8.526,0.291,17.05,0.207,25.576,0.238c1.326-1.224,4.686-5.693,4.296,0.046
			c23.586,0.439,51.747,6.493,59.522,30.586c8.882,27.527,11.355,47.231,36.878,65.737c1.048-2.234,5.717-1.74,1.842,1.31
			c30.043,20.78,67.576,23.132,102.897,23.599c-1.208-3.477,3.752-3.937,3.199,0.037c71.34,0.893,142.769,1.326,214.09,1.088
			c-1.377-0.522-2.654-1.335-4.079-1.731C740.453,649.5,740.394,648.171,740.339,646.845z M295.645,523.731
			c-3.99-1.307-3.619,0.099-7.179-4.135c4.03-0.25,7.114,1.076,8.92,4.518C296.801,523.99,296.201,523.916,295.645,523.731z
			 M428.173,629.511c-0.779-0.062-0.903-0.269-0.374-0.624C428.262,628.911,428.39,629.118,428.173,629.511z M659.524,648.804
			c0.791-0.253,1.341,0,1.696,0.671C660.654,649.249,660.089,649.027,659.524,648.804z"/>
		<path style="fill:#fff;" d="M284.47,509.889c0.065,0,0.13,0,0.195,0.006c-0.049-0.016-0.099-0.031-0.148-0.043L284.47,509.889z
			"/>
		<path style="fill:#fff;" d="M590.492,519.188c0.476-0.065,0.875-0.117,1.221-0.158c-0.423-0.006-0.844,0.016-1.267,0.065
			C590.461,519.126,590.479,519.157,590.492,519.188z"/>
		<path style="fill:#fff;" d="M563.457,594.654c0.059,0.043,0.114,0.086,0.173,0.13c-0.009-0.046-0.016-0.096-0.025-0.142
			C563.556,594.647,563.506,594.647,563.457,594.654z"/>
		<path style="fill:#fff;" d="M554.533,566.278c-2.178,10.686-0.778,21.278,8.924,28.376c0.049-0.006,0.099-0.006,0.145-0.013
			l0.043-0.028c1.221-0.108,1.808,0.346,1.765,1.369c1.319,0.827,4.188,1.766,8.146,2.763c-2.537-0.985-4.897-2.173-6.934-3.625
			C560.435,590.71,555.282,578.239,554.533,566.278z"/>
		<path style="fill:#fff;" d="M573.519,527.498c0.107,0.104-2.559,3.617-5.969,9.073
			C570.661,532.466,573.998,527.962,573.519,527.498z"/>
		<path style="fill:#fff;" d="M592.231,602.587c-7.329-1.307-13.825-2.619-18.676-3.841
			C579.296,600.974,585.988,602.11,592.231,602.587z"/>
		<path style="fill:#fff;" d="M581.867,606.632c0.012-0.612-18.28-3.304-19.807-3.637c0,0.553-0.158,1.14-0.441,1.675
			c1.625,0.38,3.245,0.785,4.854,1.218c-1.7-0.204-3.406-0.436-5.065-0.859c-0.056,0.084-0.111,0.154-0.166,0.228
			c4.645,0.573,8.5,1.05,10.773,1.663C572.87,607,581.836,608.119,581.867,606.632z"/>
		<path style="fill:#fff;" d="M562.758,543.052c-6.644,4.568-8.82,13.736-8.226,23.225c2.254-11.06,8.337-22.216,13.018-29.706
			C565.397,539.415,563.352,542.067,562.758,543.052z"/>
		<path style="fill:#fff;" d="M527.255,551.814c-0.663,0.498-1.321,1.003-1.98,1.506c-0.357,0.55-0.707,1.158-1.049,1.811
			C525.206,553.946,526.221,552.832,527.255,551.814z"/>
		<path style="fill:#fff;" d="M586.345,524.64c-0.558,0.127-1.131,0.393-1.716,0.782c0.854-0.388,1.723-0.687,2.606-0.866
			C586.938,524.578,586.642,524.614,586.345,524.64z"/>
		<path style="fill:#fff;" d="M561.242,605.256c-0.787-0.097-1.59-0.196-2.419-0.3
			C559.187,606.231,560.066,606.834,561.242,605.256z"/>
		<path style="fill:#fff;" d="M602.118,597.917c-0.099,0.145-0.179,0.297-0.244,0.454c10.424,3.916,22.307,5.835,33.13,8.258
			c-8.014-0.516-15.972-1.579-23.896-2.886c0.164,0.652-10.269-2.454-9.756-2.29c-0.328,1.48-3.317,0.936-2.586-0.838
			c-16.213-5.578-32.871-18.367-32.286-37.11c0.16-5.092,10.208-32.81,18.149-38.083c-11.484,5.209-20.191,28.146-20.344,38.009
			c-0.328,21.049,19.117,33.587,36.875,39.44c-2.735,0.034-5.775-0.044-8.929-0.284c30.552,5.448,75.534,10.815,75.76,9.293
			c0.083-0.556-58.428-12.019-65.864-15.047C602.168,597.194,602.165,597.555,602.118,597.917z"/>
		<path style="fill:#fff;" d="M594.559,524.358c-0.145-0.377-0.293-0.754-0.439-1.134l-11.283-1.925
			c-12.201,1.412-23.96,5.754-34.569,11.858c0.173,0.114,0.352,0.22,0.538,0.309c-0.386,0.015-0.773,0.031-1.159,0.046
			c-4.858,2.834-42.62,27.304-39.96,32.196c-28.145,29.851,36.279,38.185,36.224,38.411c0.126-0.525-28.544-7.575-31.981-10.381
			c-15.01-12.238-4.144-19.322,1.669-31.522c3.935-2.907,7.785-5.932,11.676-8.897c1.422-2.189,2.952-3.509,4.512-3.391
			c5.148-3.798,10.433-7.399,15.857-10.795c-8.394,6.051-14.448,15.551-17.208,25.471c-7.059,25.375,9.463,33.846,30.237,39.317
			c0.13-0.702,0.21-1.187,0.3-1.626c-19.992-4.725-35.769-12.464-28.389-37.144c2.163-7.232,12.909-25.941,18.647-28.172
			c2.485-1.449,5.075-2.837,7.745-4.132c-0.068-0.099-0.139-0.192-0.204-0.306c0.454-0.238,3.245-1.904,3.863-1.366
			c0.983-0.448,1.984-0.859,2.995-1.236c-0.68,0.445-1.595,1.165-2.673,2.163c-0.006,0.522-0.093,1.032-0.259,1.527
			c-0.575,0.198-1.122,0.315-1.632,0.321c-4.265,4.333-7.501,9.104-10.665,14.269c1.177,0.751-0.313,2.766-1.069,1.629
			c-12.121,17.609-10.727,46.486,11.709,52.127c0.479-2.009,2.818-0.495,2.989,0.649c2.766,0.504,29.764,5.513,30.011,2.485
			c0.043-0.569-25.598-3.276-27.685-3.672c-13.029-2.463-16.185-1.95-20.69-14.318c-4.045-11.101-0.868-23.62,4.095-33.673
			c0.948-1.919,17.683-23.16,17.158-23.994c6.836-2.518,14.156-4.177,21.427-4.812c0.343-0.078,0.683-0.122,1.013-0.09
			C589.711,524.374,592.127,524.315,594.559,524.358z M585.489,524.167c-1.418-0.485,0.207-1.323,0.365-1.44
			C585.44,522.325,588.78,525.289,585.489,524.167z"/>
		<path style="fill:#fff;" d="M520.79,593.213c8.07,7.62,25.305,10.147,38.033,11.742c-0.057-0.198-0.101-0.411-0.132-0.635
			c-11.682-2.859-35.516-6.83-40.606-18.311c-1.753-3.956,1.416-21.872,6.14-30.879C515.385,565.816,509.534,582.586,520.79,593.213
			z"/>
		<path style="fill:#fff;" d="M580.349,568.153c0.757-0.365,1.493-0.229,2.204,0.408c-0.003-0.825,0.028-1.653,0.09-2.479
			c-0.328,0.053-0.655,0.108-0.983,0.164c-0.025-0.94,0.352-1.693,1.14-2.265c0.167-1.829,13.512-40.856,15.904-37.759
			C593.629,519.071,580.349,567.869,580.349,568.153z"/>
		<path style="fill:#fff;" d="M582.544,569.497c-0.547,1.088-1.258,1.505-2.127,1.252c1.017,12.355,7.853,21.772,19.278,26.732
			c0.016-0.535,0.198-1.029,0.547-1.484C589.716,591.146,582.704,581.346,582.544,569.497z"/>
		<path style="fill:#fff;" d="M582.479,514.725c0.333,2.182,2.092,3.866,3.992,4.821c0.331-0.278,0.643-0.587,0.974-0.871
			c-0.288-0.022-0.581-0.031-0.853-0.121C585.099,518.054,582.757,516.215,582.479,514.725z"/>
		<path style="fill:#fff;" d="M898.06,482.288c-0.417,0.565-3.452,12.396-7.597,10.885c0.041,8.431,0.424,16.874,1.054,25.277
			c0.151-0.26,0.303-0.519,0.454-0.779c0.813-0.396,1.623-0.788,2.432-1.187l0.003,0.003l-0.003,0.003
			c0.393,0.569,0.782,1.143,1.171,1.715c0.343,0.105,0.692,0.192,1.044,0.266c0.797-0.612,1.598-1.224,2.396-1.842
			C898.19,505.194,897.852,493.754,898.06,482.288z"/>
		<path style="fill:#fff;" d="M650.354,459.799c2.918-1.319,9.317-1.683,16.05-1.97
			C659.642,455.547,657.958,456.47,650.354,459.799z"/>
		<path style="fill:#fff;" d="M591.733,508.045c-0.009-0.007-0.019-0.013-0.029-0.02
			C591.714,508.033,591.723,508.039,591.733,508.045z"/>
		<path style="fill:#fff;" d="M591.704,508.026c-0.407-0.296-0.817-0.625-1.231-0.989
			C590.856,507.389,591.273,507.714,591.704,508.026z"/>
		<path style="fill:#fff;" d="M592.819,508.754c-0.359-0.213-0.721-0.444-1.086-0.709
			C592.082,508.297,592.444,508.532,592.819,508.754z"/>
		<path style="fill:#fff;" d="M673.591,444.39c0.02,0.029,0.038,0.055,0.054,0.078
			C674.018,444.032,673.993,443.914,673.591,444.39z"/>
		<path style="fill:#fff;" d="M593.053,508.889c-0.079-0.044-0.157-0.089-0.234-0.135
			C592.898,508.8,592.975,508.845,593.053,508.889z"/>
		<path style="fill:#fff;" d="M877.56,581.182c-48.146-2.856-100.025-6.181-147.35-15.814
			c-39.261-7.992-76.445-35.902-66.543-81.242c5.866,0.788,23.667-7.769,11.781-10.767c-0.312-5.495,6.428-9.404,6.277-12.983
			c1.675,0.096,3.267-0.167,4.775-0.791c-1.74,3.4-3.069,6.953-3.983,10.662c0.278-0.661,0.557-1.326,0.837-1.987
			c-3.202,7.615-3.684,18.62-2.111,26.59c0.314-0.129,0.629-0.251,0.943-0.378c-1.164-10.299,0.566-22.134,5.982-35.753
			c8.379-5.464-5.455-16.874,12.97-15.644c-0.254-0.924-0.507-1.848-0.76-2.772c0.037-0.111,0.099-0.198,0.148-0.3
			c-4.085-0.229-8.733,0.179-11.657,3.471c-5.173,0.431-10.14,5.02-15.18,1.062c0.04,0.064,0.026,0.058-0.056-0.039
			c-0.003-0.002-0.006-0.004-0.009-0.006c0.001-0.001,0.001-0.001,0.001-0.001c-0.02-0.025-0.031-0.037-0.06-0.073
			c0.009-0.011,0.016-0.018,0.024-0.028c-0.505-0.718-2.268-2.996-0.303,0.309c-2.318,2.08-12.04,4.095-13.74,0.547
			c2.253,5.186,10.947,2.967,13.808-0.433c3.344,4.738,10.675,1.882,14.544-0.056c-1.95,3.18-0.667,6.459,0.334,9.568
			c-1.455,2.828-11.999,3.084-21.83,3.503c0.854,0.288,1.775,0.62,2.814,1.012c-2.584,1.283-5.195,4.407-5.838,7.29
			c-3.848,3.622-6.335,6.076-12.071,4.942c-0.643,1.684-2.701,0.124-2.905-0.791c-1.393-0.961-2.154-1.468-2.988-3.001
			c0.071-0.349,0.006-0.51-0.068-0.13c-1.787-3.415-1.58-1.947-0.183,0.702c-1.916,5.158-15.649,7.436-19.244,3.702
			c4.571,4.821,17.235,3.189,19.313-3.573c3.677,7.052,14.089,5.739,17.94-0.25c-0.26,9.12,15.543,5.708,12.053,11.945
			c-3.752,6.712-21.605-0.878-28.89,5.025c-4.914,0.389-18.252,6.008-20.601-2.015c2.17,8.168,13.987,5.316,19.287,3.223
			c-0.763,0.797-1.431,1.681-1.99,2.633c1.032-0.559,1.304-0.266,0.563,0.655c-0.207-0.185-0.414-0.371-0.621-0.559
			c-2.204,3.811-2.309,8.066-0.355,12.01c-5.418,4.095-8.515,1.505-14.439-0.779c-0.167,0.043-0.337,0.083-0.501,0.133
			c0.019-0.105,0.044-0.207,0.071-0.306c-13.423-5.146-22.669,15.967-34.697,9.192c1.974,1.12,4.237,1.826,6.441,1.912
			c0.158-0.241,0.318-0.479,0.466-0.72c0.637,0.09,1.107,0.318,1.459,0.646c13.697-1.014,13.366-16.376,29.436-9.052
			c0.062-0.077,0.127-0.157,0.192-0.21c-0.065,0.053-0.13,0.133-0.192,0.21c2.42,1.107,5.173,1.993,7.875,1.737
			c-5.229,2.646-11.358,4.073-15.147,8.82c-4.457,1.783-12.467,6.564-17.214,3.328c0.739-0.652,0.618-0.674-0.068-0.049
			c-0.226-0.17-0.389-0.117-0.161,0.13c-3.264,2.723-9.07,3.087-13.113,3.375c0.544,0.111,0.757,0.473,0.916,1.27
			c3.943-0.525,9.168-1.999,12.259-4.58c4.639,4.96,12.435-0.501,16.701-2.559c-8.888,13.128-11.292,8.047-28.88,7.599
			c0.164,0.819,0.195,1.644,0.096,2.479c0.146,0.38,0.294,0.757,0.439,1.134c14.352,0.275,22.61,6.199,30.416-8.36
			c-0.713-0.117-1.409-0.315-2.083-0.596c-0.269,0.124-0.535,0.247-0.801,0.368c0.25-0.139,0.502-0.278,0.751-0.417
			c0.507-1.372,1.966-1.552,3.084-0.878c4.172-5.764,12.108-6.125,17.384-10.35c-0.043-0.457,0.34-0.689,0.921-0.794
			c1.607-1.527,1.758-2.618,0.81-4.515c-0.167,0.127-0.333,0.257-0.504,0.386c-0.352-0.074-0.701-0.161-1.044-0.266
			c-0.389-0.575-0.779-1.147-1.171-1.715c0.671-0.334,1.273-0.952,1.848-1.412c-0.905-10.344,11.561-12.723,19.164-11.725
			c-9.96,43.507,23.41,75.243,63.273,83.402c0.974-1.487,4.317-1.06,2.859,0.525c47.915,8.236,99.688,10.971,148.11,13.348
			C877.526,581.312,877.524,581.253,877.56,581.182z M673.579,473.072c-1.088-0.08-2.172-0.198-3.251-0.352
			c0.72-3.356,4.336-8.301,4.614-10.328c0.201-0.927-6.789,3.786-6.678,9.602c-10.128-5.835,7.185-11.833,10.829-11.688
			l-0.068,0.046C675.427,462.967,674.392,468.727,673.579,473.072z"/>
		<path style="fill:#fff;" d="M683.397,493.988c-0.405,0.158-0.807,0.323-1.21,0.484c0.056,0.498,0.12,0.991,0.189,1.482
			C683.028,495.393,683.38,494.742,683.397,493.988z"/>
		<path style="fill:#fff;" d="M673.634,444.498c0.018,0.015,0.037,0.024,0.056,0.039c-0.012-0.019-0.025-0.039-0.045-0.069
			c-0.007,0.008-0.011,0.014-0.018,0.022C673.629,444.492,673.632,444.495,673.634,444.498z"/>
		<path style="fill:#fff;" d="M673.627,444.49c0.007-0.008,0.011-0.014,0.018-0.022c-0.016-0.023-0.034-0.049-0.054-0.078
			c-0.009,0.01-0.015,0.017-0.024,0.028C673.595,444.453,673.606,444.466,673.627,444.49z"/>
		<path style="fill:#fff;" d="M681.345,495.357c2.29,10.875,8.069,23.438,15.344,32.014c0.829-0.081,3.501,0.8,2.024,2.219
			c19.405,19.903,53.628,25.83,80.271,29.811c9.062,1.35,92.089,12.934,92.952,8.245c1.087-5.919-178.498,6.159-189.56-71.692
			c-0.078,0.067-0.143,0.139-0.23,0.203C681.88,495.892,681.611,495.623,681.345,495.357z"/>
		<path style="fill:#fff;" d="M673.69,444.537c-0.018-0.015-0.037-0.024-0.056-0.039
			C673.716,444.595,673.729,444.6,673.69,444.537z"/>
		<path style="fill:#fff;" d="M878.688,581.42c0.041,0.003,0.081,0.006,0.121,0.006c0.04-0.115,0.031-0.173-0.031-0.173
			C878.75,581.309,878.726,581.362,878.688,581.42z"/>
		<path style="fill:#fff;" d="M430.268,407.076c-2.191,0.88-2.907,1.743-2.166,2.589c0.823-0.844,1.642-1.68,2.457-2.51
			C430.466,407.125,430.372,407.095,430.268,407.076z"/>
		<path style="fill:#fff;" d="M206.94,462.883l-0.012-0.003C206.909,462.877,206.792,462.852,206.94,462.883z"/>
		<path style="fill:#fff;" d="M707.49,458.566c0.021-0.269,0.096-0.517,0.212-0.74
			C707.556,458.075,707.483,458.321,707.49,458.566z"/>
		<path style="fill:#fff;" d="M410.393,507.754c0.063-0.014,0.116-0.03,0.183-0.044
			C410.34,507.758,410.306,507.767,410.393,507.754z"/>
		<path style="fill:#fff;" d="M795.243,410.045c-0.003-0.012-0.005-0.024-0.008-0.036
			C795.105,409.977,795.126,409.994,795.243,410.045z"/>
		<path style="fill:#fff;" d="M841.9,532.171c0-0.003,0-0.005,0-0.008c-0.667,0.499-1.37,0.948-2.118,1.334
			C840.605,533.534,841.328,533.049,841.9,532.171z"/>
		<path style="fill:#fff;" d="M872.699,357.743c2.327,1.61-9.463,4.055-7.018-1.829c-38.887-10.304-78.043-5.801-117.712-5.816
			c-43.878-0.016-87.71-0.377-131.579-0.8c-0.76,0.501-1.527,0.494-2.306-0.025c-58.897-0.572-132.827-14.377-185.822,17.869
			c-23.568,14.34-33.29,33.822-40.646,59.126c-6.391,21.976-17.084,29.195-40.624,34.202c0.247,0.287,0.473,0.559,0.736,0.816
			c-0.083,3.866-3.761,1.224-4.414-0.105c-0.742,0.127-1.468,0.244-2.175,0.349l0.003,0.006c-1.047,2.25,1.975,3.325,2.262,5.164
			c-1.579,5.121-9.855-3.183-6.96-4.571c-8.687,0.927-17.522,0.767-26.234,0.457c-0.137,0.291-0.291,0.575-0.498,0.844
			c0.139,0.806,0.278,1.616,0.417,2.423l-0.006,0.003c-0.133-0.803-0.272-1.616-0.411-2.426c-1.564-0.189-3.192-0.275-4.37-1.035
			c-16.747-0.723-33.488-1.409-50.241-1.966c0.544,0.306,0.723,0.893,0.062,1.208c-0.711,0.028-1.733-0.6-0.912-1.236
			c-14.126-0.467-28.253-0.89-42.389-0.94c-1.83-11.512-34.409-9.135-34.817-5.723c-0.188,1.579,16.732,2.88,17.181,2.924
			c-3.461,3.739-2.124,10.903-2.637,15.582c0.176-0.269,0.559-0.529,0.927-0.695c0.248,0.139,0.498,0.253,0.748,0.355
			c0.467-5.127,2.639-9.967,3.366-15.029c9.398,0.803,6.783,9.055,12.256,9.506c-8.214,1.224-2.117,53.196-0.732,53.044
			c1.907-0.207,0.587-6.583,0.624-7.559c0.912,0,2.284,0.003,4.092,0.009c-7.414-0.893,12.782-2.701,14.834-2.763
			c4.756-0.142,9.451,0.3,14.21,0.294c14.123-0.025,28.228,0.297,42.379,0.482l-0.146-0.219l0.146,0.219c0.059,0,0.117,0,0.176,0
			c0.025-0.022,0.044-0.04,0.044-0.04c28.098,7.819,75.716-4.719,99.828,16.194c-0.151-0.81-0.405-1.585-0.862-2.305
			c0.458,0.72,0.711,1.496,0.862,2.305c14.473,12.538,25.617,23.361,45.102,28.197c0.411-3.26,3.119-1.61,3.057,0.714
			c1.464,0.318,3,0.618,4.574,0.905c-0.016-0.12-0.025-0.241-0.028-0.358c6.32,2.408,14.605,2.457,21.284,2.914
			c30.766,19.473,85.244-43.427,103.045-60.298c35.923-34.047,82.122-62.34,132.317-66.268c0.667-1.196,3.539-6.366,4.249-1.53
			c0.794,0.343,1.613,0.661,2.278,1.122c7.374-0.334,19.272-1.242,26.346,2.404c0.012-0.155-0.674-5.51,2.089-2.735
			c1.527,2.791,1.447,5.486-0.241,8.088l0.012,0.003c-0.003,0.006-0.003,0.013-0.003,0.013l-0.019,0.003l0.009-0.018
			c-0.402-0.124-0.831-0.257-1.236-0.414c-4.854,4.633-15.384,1.829-21.411,1.502c-0.643,0.513-1.307,0.995-2.139,1.27
			c0.06,0.566,0.118,1.128,0.176,1.694c2.055,0.133,4.11,0.263,6.168,0.392c-23.58,5.578-13.78,51.978-6.218,65.008
			c22.462,38.695,73.908,37.175,112.854,36.894c0.43-0.207,0.952-0.306,1.564-0.3c-0.009,0.096-0.019,0.192-0.028,0.287
			c14.482-0.108,28.676-1.422,43.087-1.953c5.643,12.433,13.403,22.118,21.228,33.198c2.46-1.53,3.739,1.044,4.015,2.843
			c-0.08,0.012-0.161,0.022-0.244,0.028c0.368,0.933,0.238,1.746-0.39,2.438c4.679,8.542,3.554,14.701,3.242,23.654
			c-0.075,2.132-6.432,7.04-5.764,8.564c0.652,1.505,5.727-3.418,5.85-3.739c4.314-11.268,5.217-16.843-0.59-28.692
			c-6.991-14.272-19.105-25.061-25.774-39.824c-1.202,0.377-4.5-1.202-0.745-1.616c-7.717-16.648-8.671-36.758-5.504-54.556
			c-0.021-0.015-0.046-0.028-0.068-0.043c0.056-0.918-0.164-1.669-0.664-2.25c0.501,0.581,0.72,1.332,0.664,2.25
			c0.025,0.015,0.046,0.028,0.071,0.043c4.336-24.671,16.167-40.673,26.161-62.427c-1.138-2.54-0.578-4.237,1.681-5.09
			c0.176-0.012,0.346-0.009,0.513-0.003c2.846-6.781,5.668-13.644,5.041-21.117c-0.742-8.885-10.489-15.573-11.836-20.363
			c-21.299-12.309-52.491-8.119-75.981-8.31c-0.733,2.083-4.738,2.565-5.362-0.046c-10.431-0.09-22.042-0.204-33.939-0.318
			c-0.284,6.116-4.898,1.814-8.019,1.697c-0.346-0.705-0.331-1.298,0.043-1.777c-4.181-0.04-8.372-0.08-12.532-0.12
			c-0.019,0.077-0.034,0.151-0.068,0.222c0.034-0.071,0.049-0.145,0.068-0.222c-14.008-0.13-27.693-0.25-39.607-0.321
			c1.882-0.012,3.239,0.736,4.073,2.244c0.216,3.384-11.422-1.99-4.324-2.247c-57.139-0.346-115.181-3.301-172.101,2.324
			c-22.746,2.244-45.88,5.241-67.328,13.632c-13.964,5.464-23.099,13.981-32.479,23.523c1.93,0.612,1.747,3.371-0.233,3.775
			c-1.116-0.417-1.852-0.839-2.225-1.265c-2.646,2.714-5.344,5.492-8.209,8.296c-2.447,5.346-4.885,11.404-7.51,18.193
			c-0.244-1.15-6.987,16.84-9.119,19.572c-5.99,7.664-12.134,7.485-19.764,10.956c0.42,1.205,0.544,2.435,0.374,3.693
			c-1.344-0.708-2.098-1.724-2.262-3.053c-1.236,0.006-8.1-1.221-8.242,1.032c-0.096,1.493,4.515,2.197,5.566,2.278
			c-3.946,1.335-7.729,2.577-11.796,3.446c0.987,5.167-131.854,1.743-145.995-0.563c-1.836,0.692-7.936-1.236-9.667-1.36
			c-0.788,0.664-1.462,1.499-2.055,2.454c0.281-1.786,2.392-7.195-0.268-8.208c1.835,0.145,3.671,0.278,5.506,0.411
			c1.088-0.374,2.179-0.627,3.038-0.887c1.091,0.145,1.623,0.553,1.588,1.224c28.503,2.098,57.041,4.11,85.59,5.498
			c-0.751-1.555-0.668-3.1,0.25-4.633l0.028-0.022c1.675-0.247,3.223,0.223,4.639,1.415c-0.08,1.561-0.661,2.689-1.746,3.381
			c41.115,1.694,78.933-5.532,89.978-48.446c-1.085-0.615-5.881-2.095-5.501-3.446c0.349-1.224,5.964-0.015,6.415,0.028
			c11.371-40.887,49.292-59.729,89.298-64.046c57.235-6.178,117.366-0.504,174.963-0.791c55.5-0.278,114.061-6.675,169.171-0.677
			c16.23,1.765,43.488,4.16,56.483,15.771c15.524,13.87,6.533,41.143,4.911,58.919c2.139-0.664,4.349-0.766,6.62-0.303
			c0.133,0,0.266,0.003,0.396,0.006C903.347,398.256,911.33,367.951,872.699,357.743z M206.928,462.88l0.012,0.003
			C206.792,462.852,206.909,462.877,206.928,462.88z M208.229,464.645c0.006-0.179,0.009-0.365,0.016-0.547
			C208.238,464.28,208.235,464.465,208.229,464.645z M700.088,473.619c-0.009-0.698,0.018-1.341,0.102-1.913
			C700.15,472.343,700.116,472.98,700.088,473.619z M707.488,458.581c0-0.005,0.002-0.01,0.002-0.016
			c-0.007-0.244,0.066-0.491,0.212-0.74c0.131-0.252,0.313-0.472,0.539-0.645c-0.238,0.216-0.414,0.431-0.539,0.645
			c-0.116,0.223-0.191,0.471-0.212,0.74c0.014,0.444,0.278,0.88,0.797,1.307C707.787,459.641,707.506,459.199,707.488,458.581z
			 M721.094,468.26c0,0,0.009-0.006,0.019-0.009c0.003,0.009,0.009,0.022,0.009,0.022c1.499,0.624,0.881,1.694,0.006,0.009
			c0,0-0.025-0.009-0.034-0.012V468.26z M713.365,443.858l-0.043,0.022c-0.019-0.006-0.028-0.019-0.046-0.028
			C713.307,443.855,713.337,443.858,713.365,443.858z M714.394,517.389c-1.885-0.995-2.973-1.487-3.881-1.459
			c0.909-0.028,2,0.464,3.885,1.459l0.346,0.016L714.394,517.389z M721.774,508.458c-1.212,2.509-1.873,5.158-1.984,7.939
			c-1.514-0.291-3.028-0.377-4.527,0.096c-0.136-1.106-0.272-2.21-0.411-3.316c-0.393-0.42-0.781-0.841-1.171-1.261
			c-2.345-0.961-4.456-1.585-1.52-3.65c1.141-1.938,2.825-2.834,5.05-2.689c0.77-0.791,1.651-0.995,2.676-0.436
			c0.81-0.204,1.617-0.408,2.423-0.612C723.474,506.656,723.474,506.656,721.774,508.458z M722.973,499.749
			c-0.188-0.046-0.365-0.139-0.547-0.21c0.683-2.108,0.683-2.108,3.112-1.962C725.925,500.358,725.841,500.429,722.973,499.749z
			 M857.612,410.747c-1.632-0.797-0.615-3.106,0.637-3.313C859.633,408.198,858.415,411.146,857.612,410.747z M868.403,410.148
			c-1.829-1.174-1.461-2.336,1.097-3.489C871.568,407.635,871.204,408.797,868.403,410.148z M879.52,385.909
			c3.721,1.18,4.836,3.069,3.347,5.662c-1.511,2.083-5.572-2.037-6.187-3.029C876.606,386.883,878.157,385.681,879.52,385.909z
			 M864.71,381.107c0.463-1.78,6.499-5.43,6.935-1.292c0.219,2.074-5.814,2.525-6.833,2
			C864.76,381.462,864.67,381.271,864.71,381.107z M865.727,387.893c-0.241-0.204-0.379-0.454-0.396-0.76
			c-1.675-0.964,0.637-2.469,0.56-0.927C868.045,387.353,868.166,389.961,865.727,387.893z M864.51,397.668
			c2.237-1.446,3.746-1.307,4.524,0.414C869.149,400.629,862.51,398.997,864.51,397.668z M866.46,413.461l-0.433-0.139l0.355-0.29
			L866.46,413.461z M865.866,425.402c-2.114,9.074-9.104-4.221-6.505-3.301C860.73,422.587,867.223,419.626,865.866,425.402z
			 M862.721,409.684l0.077,0.423l-0.429-0.136L862.721,409.684z M858.622,383.292c2.092,0.726,2.194,2.448,0.303,5.164
			c-1.762,0.674-2.689-0.08-2.787-2.259C856.44,384.889,857.08,383.737,858.622,383.292z M838.401,432.087
			c0.307-1.95-1.079-3.885-0.059-5.844C842.981,426.626,842.417,430.845,838.401,432.087z M841.931,487.338
			c-0.454-0.087-0.905-0.176-1.357-0.263C841.1,486.843,841.56,486.899,841.931,487.338z M840.512,437.096
			c-1.292,0.25-2.132-0.257-2.518-1.521c0.071-0.776,0.142-1.548,0.213-2.324C840.84,434.031,841.606,435.313,840.512,437.096z
			 M839.44,461.409c0.396,0.043,0.785,0.111,1.168,0.201c0.037,1.44,0.074,2.88,0.115,4.32c-1.134-0.606-2.318-0.955-3.548-1.054
			C837.58,463.557,838.333,462.401,839.44,461.409z M838.55,491.652c1.137-1.446,2.816-1.159,4.407-1.15
			c0.463,3.121,0.263,6.175-1.094,9.114c-2.302-1.891-3.504-4.219-3.607-6.978C837.734,491.949,837.833,491.621,838.55,491.652z
			 M841.269,519.006c0.998-1.298,2.519,1.641,0.998,2.407C841.004,521.243,840.67,520.44,841.269,519.006z M840.117,504.375
			c0.114-0.263,0.226-0.529,0.337-0.794c0.179,0.164,0.358,0.327,0.538,0.495C840.701,504.175,840.41,504.277,840.117,504.375z
			 M843.139,531.142c-0.395,0.366-0.811,0.702-1.239,1.021c0,0.003,0,0.005,0,0.008c-0.572,0.878-1.295,1.363-2.117,1.326
			c0.748-0.386,1.45-0.835,2.118-1.334c0.046-0.866,0.095-1.735,0.142-2.6C843.176,529.643,843.902,530.014,843.139,531.142z
			 M845.04,521.379l-0.272-0.294l0.396-0.108L845.04,521.379z M843.655,455.12c1.993,0.257,3.996,0.454,5.993,0.677
			C847.651,455.574,845.648,455.376,843.655,455.12z M847.085,527.276c-0.148,0.124-0.328,0.229-0.544,0.315
			C842.388,526.185,850.028,524.84,847.085,527.276z M853.375,501.26c0.359,0.729,0.652,1.48,0.884,2.259
			c-2.948,1.004-5.891,2.405-8.286-0.371h0.003c2.918-0.303,4.605-1.656,5.065-4.061c-0.181-0.723-0.348-1.457-0.712-2.03
			c-0.122-0.191-0.265-0.364-0.438-0.513c0.173,0.149,0.316,0.323,0.438,0.513c0.364,0.573,0.532,1.307,0.715,2.03
			C852.213,499.573,852.896,500.355,853.375,501.26z M849.231,449.069l0.034-0.034c1.903-0.392,2.871,0.114,2.898,1.521
			C850.915,451.214,849.938,450.716,849.231,449.069z M849.416,415.355c-0.025,0.288-0.05,0.578-0.077,0.868
			C849.366,415.933,849.391,415.643,849.416,415.355c2.265-2.231,2.599-4.747,2.197-7.334
			C852.015,410.608,851.681,413.124,849.416,415.355z M843.578,375.609c0.006,0.55-0.031,1.119-0.049,1.684
			c-1.836-1.295-2.804-3.069-2.905-5.316C843.13,372.491,843.553,373.956,843.578,375.609z M842.617,379.101
			c4.339-2.893,9.099-4.265,8.681,3.523l0.083,0.124c-4.113-0.362-7.847-1.625-11.948-1.728l-0.151-0.08
			C839.641,379.154,841.575,379.796,842.617,379.101z M840.97,407.771c3.06-1.771,3.06-1.771,5.662,0.29
			c-0.13,0.21-0.158,0.433-0.081,0.664v0.003c0.878,2.201,1.385,4.472,1.518,6.811c-1.458-0.151-2.361-0.794-2.42-2.191
			c-0.037-0.006-0.077-0.009-0.117-0.015c0,0,0.003-0.05,0.007-0.074c-1.268,0.358-2.822-0.037-3.759,1.199
			c-1.066,0.371-2.132,0.738-3.199,1.109c0.677-1.851,1.215-3.74,1.611-5.674c-1.045,0.009-2.093,0.015-3.141,0.025
			c0.439-0.754,0.878-1.508,1.314-2.262C839.233,407.694,840.101,407.734,840.97,407.771z M837.298,404.894
			c-0.086-0.226-0.176-0.454-0.263-0.68c0-0.001,0-0.002,0-0.003v0c-0.009-1.304,0.077-2.602,0.263-3.891
			c-0.185,1.288-0.272,2.585-0.263,3.891C837.122,404.44,837.212,404.665,837.298,404.894z M837.079,386.265l0.198,0.371
			l-0.47-0.025L837.079,386.265z M741.321,509.957c-0.256-0.179-0.47-0.408-0.698-0.621c0.216-0.173,0.433-0.349,0.649-0.525h0.003
			C741.89,509.317,741.905,509.697,741.321,509.957z M740.54,495.098c-0.115-1.001-0.083-1.928,1.27-2.219
			C741.785,493.812,741.797,494.761,740.54,495.098z M742.493,522.479c-0.124-0.099-0.244-0.201-0.358-0.297
			c0.096-0.161,0.173-0.291,0.253-0.423C742.78,521.948,742.814,522.189,742.493,522.479z M748.513,499.585
			c-0.927,3.242-1.65,4.376-3.576,1.36C745.367,498.346,749.264,496.961,748.513,499.585z M747.61,491.68
			c0.034-0.09,0.241-0.124,0.371-0.179c0.284,0.303,0.216,0.482-0.207,0.535C747.712,491.915,747.576,491.77,747.61,491.68z
			 M755.29,532.86c-0.605-0.025-0.914-0.414-0.92-1.168v-0.003C754.938,528.833,757.463,532.86,755.29,532.86z M758.464,518.36
			c-1.956,0.275-3.319-0.813-4.088-3.267c0.374,0.439,3.983-1.184,4.667,2.411C758.856,517.8,758.742,518.214,758.464,518.36z
			 M756.595,431.154c-0.136-0.019-0.433,0.015-0.504-0.083c0.238-0.661,0.55-0.751,0.943-0.272
			C756.894,430.909,756.758,431.021,756.595,431.154z M757.219,474.775c1.919-2.287,3.047-1.984,3.381,0.915
			C759.231,477.652,758.102,477.346,757.219,474.775z M774.003,537.258c0.157-0.167,0.303-0.417,0.466-0.547
			C774.306,536.841,774.16,537.091,774.003,537.258z M781.871,536.117c0.479-0.825,0.958-1.647,1.44-2.472
			C782.829,534.47,782.35,535.292,781.871,536.117z M783.394,516.712c-0.173-0.055-0.343-0.114-0.513-0.173
			C783.138,515.924,783.667,516.036,783.394,516.712z M790.673,532.359c-0.903,0.702-1.808,1.394-2.714,2.089v-0.003
			c-0.352-0.071-0.701-0.158-1.044-0.263c-0.389-0.575-0.779-1.147-1.171-1.715l0.003-0.003c2.186-1.533,2.821-2.763,4.926-0.108
			c1.227,0.266,2.456,0.532,3.687,0.797C793.129,532.888,791.899,532.622,790.673,532.359z M786.349,523.845
			c0.476-0.563,0.881-0.6,1.212-0.111c-0.146,0.253-0.356,0.476-0.544,0.711C786.794,524.247,786.575,524.046,786.349,523.845z
			 M791.894,527.198c0.064,0.127,0.129,0.25,0.194,0.374C791.569,527.795,791.315,527.455,791.894,527.198z M793.28,502.918
			c-0.09,0.029-0.185,0.05-0.286,0.064C793.095,502.968,793.19,502.947,793.28,502.918c0.631-0.202,1.041-0.793,1.911-2.075h0.003
			C794.32,502.125,793.911,502.716,793.28,502.918z M795.104,500.834c0.003-0.037,0.009-0.074,0.012-0.111
			c-0.3-0.155-0.303-0.247,0.028-0.278c-0.009,0.093-0.018,0.182-0.028,0.278c0.04,0.019,0.065,0.037,0.118,0.059L795.104,500.834z
			 M792.762,496.028c-1.817-0.983-4.419-7.779-0.905-8.449C795.005,486.986,797.477,496.742,792.762,496.028z M821.25,403.843
			c0.312-0.318,0.961-0.621,1.372-0.933C829.044,405.113,818.682,406.507,821.25,403.843z M816.79,517.062
			c2.472-1.168,2.983-1.017,5.062,1.647c-2.305,0.822-4.639,1.017-7.012,0.275C815.273,518.159,815.87,517.497,816.79,517.062z
			 M812.213,428.044l-0.627,0.646l-0.3-0.785L812.213,428.044z M812.25,440.113c0.303,3.347-1.329,4.784-4.901,4.308
			C807.893,441.942,809.302,440.289,812.25,440.113z M805.219,426.023c0.995-0.482,1.836,17.486-0.042,20.304
			C804.477,443.642,800.701,428.242,805.219,426.023z M803.121,484.77c-0.176-0.04-0.498-0.074-0.501-0.124
			c-0.018-0.287,0.037-0.581,0.071-0.874C803.455,483.734,803.199,484.087,803.121,484.77z M803.096,382.556
			c-0.093,0.074,1.49,1.524-0.649,0.689C802.657,383.007,802.849,382.751,803.096,382.556z M801.378,498.191l0.386,0.26
			l-0.417,0.186L801.378,498.191z M803.065,507.07c0.006,0.012,0.012,0.022,0.019,0.037c-0.934-0.328-1.873-0.646-2.813-0.955
			C801.82,505.068,802.033,505.133,803.065,507.07z M804.468,527.687c-0.361,0.433-0.766,0.844-1.082,1.304
			c-3.282,4.803-3.195,2.225-7.835,3.214C797.358,528.762,800.438,527.436,804.468,527.687z M798.523,477.73
			c2.654,8.235-7.392,7.969-10.393,6.794c-0.718,1.396-1.184,1.704-0.823-0.681c-0.034,0.227,0.281,0.469,0.823,0.681
			c1.139-2.215,2.908-7.164,3.013-8.46c-0.261,0.182-0.521,0.362-0.782,0.544c0.611-1.004,0.823-1.052,0.782-0.544
			c1.327-0.924,2.652-1.847,3.977-2.769c-0.417-1.313,0.003-2.602,1.264-3.866c2.846,0.306,3.261,2.092,1.236,5.359
			c-0.081,0.016-0.148,0.012-0.223,0.022C797.963,475.668,798.201,476.734,798.523,477.73z M789.544,456.452
			c-0.003,0.046,1.231-4.926,1.181-5.146c0.423,2.491,0.847,4.985,1.27,7.479c-0.581,1.397-1.158,2.791-1.743,4.181
			C789.613,460.831,789.378,458.658,789.544,456.452z M794.199,381.076c-0.019-2.633,0.495-5.143,1.539-7.528
			c1.162-0.535,4.169,17.755,0.482,19.393C793.797,389.47,793.124,385.514,794.199,381.076z M790.29,376.415
			c2.682,2.012,2.682,2.463,0,4.469C790.29,379.395,790.29,377.905,790.29,376.415z M790.29,406.587
			c0.457,0.321,0.914,0.64,1.372,0.961l-0.003,0.003c1.418,0,2.589,0.8,3.517,2.404c0.016,0,0.034,0,0.05,0.003
			c0.005,0.015,0.005,0.034,0.009,0.049c0.003,0.012,0.005,0.024,0.008,0.036c0.723,0.316,5.255,2.009,2.365,2.563
			c-2.317,0.444-2.002-1.126-2.365-2.563c-0.117-0.051-0.138-0.068-0.008-0.036c0,0-0.028-0.006-0.04-0.009
			c0,0-0.016-0.028-0.019-0.043c-1.415-0.099-3.362-0.108-3.77-2.154c-0.368-0.049-0.742-0.083-1.116-0.099
			C790.29,407.332,790.29,406.958,790.29,406.587z M790.29,422.231c2.661,1.959,2.661,2.451,0,4.469
			C790.29,425.211,790.29,423.721,790.29,422.231z M790.29,438.994c2.528,1.576,2.528,1.656,0,3.35
			C790.29,441.228,790.29,440.11,790.29,438.994z M787.017,439.884c1.446-0.708,2.523-0.396,3.227,0.939
			c-1.029,0.958-2.142,0.819-3.338-0.414C786.943,440.218,786.915,440.004,787.017,439.884z M786.321,511.431
			c2.531-3.075,10.551,5.081,5.334,6.014C787.347,516.332,785.57,514.33,786.321,511.431z M781.367,457.589
			c0.155-0.114,0.47-0.21,0.674-0.318c0.658,0.686,0.519,1.122-0.411,1.313C781.185,458.207,781.095,457.874,781.367,457.589z
			 M779.124,474.123c2.722-2.083,8.755,3.23,6.023,5.099C782.421,481.092,775.875,476.602,779.124,474.123z M776.077,370.538
			c2.531,1.372,3.152,3.109,1.863,5.21C775.539,378.344,767.893,371.205,776.077,370.538z M777.823,471.314l-0.93,0.819l0.296-4.62
			L777.823,471.314z M773.811,529.448c1.236-0.822,2.392-0.751,3.471,0.216c2.275,3.848-4.481,5.081-6.181,5.584
			C771.435,533.11,774.074,531.921,773.811,529.448z M766.589,390.48c-0.346-1.363-0.695-2.726-1.042-4.089
			c0.813,0.374,1.625,0.745,2.438,1.119C767.868,386.633,768.848,392.962,766.589,390.48z M763.554,412.87
			c1.938-1.143,3.403-0.921,4.395,0.668C768.137,416.115,762.451,413.869,763.554,412.87z M765.436,422.117
			c-2.142-0.704-2.172-0.776-1.091-2.491C765.022,420.352,765.387,421.181,765.436,422.117z M762.003,459.341
			c2.72-0.247,4.425,0.813,5.124,3.183C765.053,467.179,759.546,459.944,762.003,459.341z M755.729,373.325
			c0.231,0.303,0.466,0.603,0.701,0.905C755.788,374.197,755.386,374.002,755.729,373.325z M754.264,390.017
			c-0.498,0.63,7.859-2.188,7.21,0.773C760.763,394.05,753.439,391.064,754.264,390.017z M755.506,402.397l-0.463,0.071l0.148-0.393
			L755.506,402.397z M753.081,459.005c0.402-0.309,0.797-0.785,1.199-1.011c0.776-0.355,1.459-0.046,2.055,0.93
			c-2.067,1.644-1.437,1.44-3.254,0.083h0.003L753.081,459.005z M754.169,505.476l0.194-0.123c0.829,0.324,1.561,0.794,2.194,1.406
			c-0.633-0.612-1.366-1.082-2.194-1.406L754.169,505.476c-0.571,1.079-1.543,1.632-2.81,1.796
			C751.838,506.072,752.516,505.133,754.169,505.476z M745.045,408.695c0.074-0.544,0.269-1.085,0.665-1.622
			c1.15-5.449,5.176,1.916,4.679,5.352c2.794,2.788-0.442,7.485-2.327,3.01c-0.238-0.043-0.445,0.012-0.618,0.17
			C744.773,415.352,744.746,410.883,745.045,408.695z M743.723,465.936c-0.643,1.01-1.678,1.026-3.106,0.037
			C739.783,464.382,744.025,464.496,743.723,465.936z M741.674,459.156c0.772-0.13,1.561-0.21,1.987,0.667
			C743.194,463.727,738.061,459.759,741.674,459.156z M738.413,423.628l-0.775,0.516l-0.062-0.884L738.413,423.628z
			 M737.938,491.037c-0.25-0.176,0.194,1.721-1.023-0.408l0.053-0.046C737.292,490.731,737.653,490.839,737.938,491.037z
			 M735.749,369.888c1.332,3.805,1.171,3.882,1.175,7.825c-3.598-0.522-6.014-2.327-7.251-5.414
			C731.206,370.439,733.231,369.632,735.749,369.888z M709.925,406.384c-0.161,0.065-0.367,0.022-0.552,0.022
			C709.873,405.796,710.055,405.79,709.925,406.384z M715.894,388.261c0.383-0.318,1.051-0.358,1.591-0.519l0.04,0.028
			c0.893,0.111,1.833,0.13,2.732,0.226c-0.899-0.096-1.839-0.114-2.732-0.226C716.706,391.75,716.214,387.995,715.894,388.261z
			 M719.877,407.11c-0.488,0.865-3.814-1.171-3.74-1.845C716.706,404.872,720.356,406.241,719.877,407.11z M726.663,399.81v0.003
			c-0.281-0.188-0.735-0.337-0.797-0.575C725.928,399.476,726.382,399.625,726.663,399.81z M722.102,395.165
			c0.035,0.145,1.023,4.843-0.918,4.197C716.063,397.65,721.416,392.075,722.102,395.165z M714.503,372.778
			c1.634-1.898,3.85,2.503,3.912,2.685c0.9,0.117,1.798,0.241,2.701,0.365c-0.903-0.124-1.802-0.247-2.701-0.365
			c-0.04,0.216-0.074,0.433-0.099,0.649C715.461,375.859,714.187,374.75,714.503,372.778z M712.172,376.49
			c0.065-0.108,0.293-0.133,0.451-0.192C713.412,377.099,711.894,376.932,712.172,376.49z M708.55,385.019
			c2.544-3.35,2.401,4.41-0.173,0.232C708.439,385.183,708.492,385.097,708.55,385.019z M665.241,427.776
			c-0.921-0.312-1.842-0.624-2.76-0.936c1.632-1.143,2.055-0.467,2.812,0.955C665.274,427.788,665.259,427.782,665.241,427.776z
			 M672.151,431.92c-0.374,0.309-1.329-0.933,0.013-0.485C672.164,431.608,672.241,431.846,672.151,431.92z M687.424,404.084
			c0.739-0.593,5.362,1.793,5.668,2.67c1.78,5.121-5.306,2.404-6.286-1.082C687.025,405.061,687.047,404.387,687.424,404.084z
			 M680.084,388.888c1.338,0.865,1.823,2.083,1.453,3.659c2.281,2.859-2.636,4.16-1.347-0.232c-0.288-0.087-0.55-0.213-0.792-0.383
			c-0.074-0.318-0.201-0.612-0.386-0.89C678.839,390.18,679.197,389.46,680.084,388.888z M649.081,419.159
			c3.693-2.148,19.464-10.242,23.015-3.094c1.69,3.399-14.602,5.381-16.215,6.03c-0.034,0.797-0.461,1.403-1.227,1.845
			c-0.303-0.3-0.602-0.603-0.906-0.902C651.667,424.049,645.69,421.131,649.081,419.159z M642.167,372.009
			c0.071-0.21,0.51-0.318,0.772-0.47C645.867,372.175,641.512,374.005,642.167,372.009z M628.665,373.152
			c1.663-0.498,3.087-0.062,4.275,1.314c7.707,0.89,0.899,7.726-1.261,6.273c-0.606-1.953-0.146-3.807,1.381-5.56
			C633.817,375.124,626.069,375.631,628.665,373.152z M623.754,396.602c2.38,1.137,0.983,3.424-0.686,2.846
			C620.825,398.667,622.123,395.823,623.754,396.602z M620.346,375.207c0.455-0.254,0.977-0.405,1.431-0.581
			c2.349,1.004-0.702,2.086-2.089,1.295C619.904,375.677,620.071,375.359,620.346,375.207z M619.317,425.183
			c-1.23-0.386-2.461-0.776-3.691-1.165C616.974,424.095,618.226,424.422,619.317,425.183z M609.597,416.743
			c0.957-1.139,2.016-1.988,3.341-2.094c0.189-0.015,0.384-0.015,0.584,0.002c-0.2-0.017-0.395-0.017-0.584-0.002
			c-1.325,0.106-2.383,0.956-3.341,2.097c-0.037,1.107,0.284,2.089,1.199,2.859c-0.544,4.917-3.122,2.312-3.678-1.23
			C607.944,417.831,608.772,417.287,609.597,416.743z M611.566,427.757c-0.266-0.124-0.535-0.247-0.8-0.368
			c-1.196,0.757-2.364,0.698-3.501-0.17c0-3.131,3.436-0.189,3.55,0.117C611.065,427.479,611.315,427.618,611.566,427.757z
			 M609.202,441.03c4.781-0.346-1.029,6.685-2.617,2.754C607.456,442.866,608.33,441.948,609.202,441.03z M605.627,430.814
			c0.392,0.192,0.429,0.433,0.104,0.723c-0.121-0.102-0.244-0.201-0.358-0.297C605.468,431.079,605.549,430.946,605.627,430.814z
			 M592.974,411.013c1.388-0.844,1.95,1.666,0.464,2.265C592.844,413.077,590.334,412.608,592.974,411.013z M591.694,440.811
			c-0.325,1.208-5.844,0.188-1.774-2.145C591.172,438.938,592.003,439.649,591.694,440.811z M588.94,415.253
			c2.03,0.144,1.091,1.428-0.139,2.491c-0.002,0.038-0.004,0.076-0.006,0.115c-0.568,0.878-1.292,1.363-2.117,1.326
			c0.152,0.007,1.216-0.657,2.123-1.44C588.849,416.914,588.894,416.083,588.94,415.253z M577.824,425.476
			c2.584,0.198,1.369,1.273-0.506,0.844C577.135,425.773,577.327,425.439,577.824,425.476z M567.894,393.125
			c1.663-0.501,3.088-0.062,4.274,1.314c7.704,0.887,0.9,7.723-1.261,6.274c-0.605-1.956-0.145-3.81,1.382-5.56
			C573.053,395.097,565.296,395.601,567.894,393.125z M432.58,428.35c2.117-1.502,28.698-13.771,29.3-11.676
			c0.05,0.17-28.942,17.622-31.377,15.103C429.032,430.263,432.438,429.104,432.58,428.35z M432.478,426.818
			c0.208-0.226,0.417-0.448,0.628-0.671c0.145,0.099,0.288,0.192,0.433,0.287c-0.145-0.096-0.288-0.189-0.433-0.287
			C432.895,426.369,432.685,426.592,432.478,426.818z M430.614,452.156l-0.019,0.006c-0.019-0.42-0.04-0.841-0.062-1.261
			C430.932,451.303,431.573,451.699,430.614,452.156z M431.359,481.525c-2.645-3.066,0.822-2.615,1.072-1.542
			C432.073,480.499,431.714,481.012,431.359,481.525z M437.914,545.744c-0.924,1.833-3.526-0.074-4.323-1.474
			c-1.722-0.788-2.105-6.224,1.387-2.784c0.346,0.908,0.304,1.607,0.927,2.401C436.721,544.236,439.042,543.51,437.914,545.744z
			 M436.736,501.816c-1.038,0.278-0.878,0.529-1.295-0.624C436.257,500.679,436.69,500.886,436.736,501.816z M436.434,454.406
			c0.371-0.259,0.581-0.167,0.63,0.275C436.693,454.941,436.483,454.848,436.434,454.406z M438.457,533.015
			c-0.457-1.082-0.912-2.163-1.366-3.242c0.454,1.079,0.909,2.16,1.366,3.239c1.468,0.516,2.939,1.029,4.407,1.542
			C441.397,534.041,439.926,533.528,438.457,533.015z M439.728,507.364c0.041-0.253,0.263-0.411,0.615-0.464
			c0.263,0.182,0.522,0.368,0.785,0.553C441.013,507.509,439.58,508.282,439.728,507.364z M447.627,481.562
			c0.68,0.726,1.044,1.554,1.094,2.491C446.579,483.348,446.548,483.277,447.627,481.562z M451.125,476.033
			c-0.884,1.607-5.291-0.322-4.286-1.224C446.762,474.877,452.371,473.755,451.125,476.033z M435.061,441.164
			c-1.872-2.336,7.3-4.589,8.109-4.849c-1.066-0.643,0.161-1.947,1.406-0.871c1.762-0.516,17.711-6.407,18.135-4.531
			c0.686,3.041-7.71,2.577-8.972,3.974C452.296,436.457,437.265,443.914,435.061,441.164z M459.318,458.742
			c-0.208-0.201-0.415-0.405-0.618-0.609C459.689,457.537,459.961,457.772,459.318,458.742z M461.833,435.452
			c-3.285,4.803-3.195,2.222-7.834,3.214c1.805-3.446,4.886-4.772,8.916-4.521C462.551,434.578,462.149,434.989,461.833,435.452z
			 M495.236,476.24c-0.285-0.303-0.216-0.482,0.207-0.531C495.727,476.011,495.656,476.191,495.236,476.24z M549.247,414.926
			c0.049-0.936,0.414-1.765,1.091-2.488C551.42,414.153,551.389,414.221,549.247,414.926z M551.259,406.195
			c-0.454,1.072-4.679,2.287-4.524,0.155C546.889,404.214,551.484,405.664,551.259,406.195z M546.697,380.319
			c0.813-0.371,1.625-0.745,2.438-1.116c-0.346,1.363-0.692,2.726-1.042,4.086C545.835,385.77,546.815,379.441,546.697,380.319z
			 M549.157,497.416c1.36,2.046,0.782,3.77-1.733,5.176C542.705,502.181,546.833,494.671,549.157,497.416z M540.702,446.658
			c0.989-0.553,2.129-0.878,3.118-1.261c5.118,2.185-1.533,4.534-4.552,2.812C539.738,447.681,540.102,446.992,540.702,446.658z
			 M531.146,520.52c1.229,0.266,2.457,0.532,3.687,0.797c-1.23-0.266-2.457-0.532-3.687-0.794c-0.903,0.698-1.808,1.394-2.714,2.086
			c-0.352-0.071-0.701-0.161-1.044-0.263c-0.389-0.575-0.779-1.15-1.171-1.718C527.963,518.511,529.385,518.295,531.146,520.52z
			 M527.833,500.676c1.889,0.275,0.625,1.759-0.027,2.516c-0.356-0.51-0.714-1.026-1.073-1.539
			C526.897,500.939,527.277,500.596,527.833,500.676z M526.458,454.332c0.42,0.998-0.439,1.221-0.837,0.312
			C525.898,454.542,526.18,454.437,526.458,454.332z M522.459,519.296c1.388-0.844,1.951,1.666,0.463,2.265
			C522.329,521.361,519.823,520.891,522.459,519.296z M518.426,523.536c2.029,0.144,1.093,1.427-0.135,2.489
			c-0.002,0.04-0.004,0.08-0.007,0.119c-0.572,0.875-1.295,1.36-2.12,1.323c0.154,0.007,1.22-0.658,2.127-1.442
			C518.334,525.194,518.379,524.365,518.426,523.536z M508.385,534.94c-0.56-0.022-1.11-0.229-1.583-0.337
			C506.046,532.325,510.493,535.02,508.385,534.94z M505.1,479.779l2.8-0.578C507.007,479.544,506.061,479.735,505.1,479.779z
			 M503.907,408.742c2.114-0.776,3.263-0.464,3.446,0.936C505.944,413.013,500.761,409.734,503.907,408.742z M501.295,462.401
			c2.754,1.904-5.065,1.462-0.785-0.343C500.749,462.178,501.101,462.268,501.295,462.401z M499.846,425.137
			c1.001,0.071-0.219,2.602-1.588,1.153C498.397,425.445,499,425.081,499.846,425.137z M491.613,379.735
			c2.537-3.072,10.548,5.081,5.334,6.014C492.643,384.636,490.865,382.63,491.613,379.735z M491.722,541.26
			c0.293-1.434,1.289-2.064,2.834-2.046c-0.213,2.268-0.387,4.552-3.1,5.665C491.072,543.643,491.48,542.456,491.722,541.26z
			 M480.853,521.657c-4.188,4.985-3.628,3.396-8.916,4.521C473.741,522.736,476.822,521.407,480.853,521.657z M468.633,423.461
			c2.185-1.53,2.825-2.763,4.926-0.108c1.23,0.266,2.46,0.531,3.687,0.797c-1.227-0.266-2.457-0.532-3.687-0.791
			c-0.902,0.698-1.808,1.391-2.71,2.086c-0.355-0.074-0.702-0.161-1.047-0.266c-0.39-0.572-0.779-1.147-1.168-1.715V423.461z
			 M466.238,396.296c0.012,2.228,0.022,4.453,0.034,6.682c-2.88,0.649-4.41-0.402-4.598-3.149
			C462.915,398.358,464.229,396.942,466.238,396.296z M454.481,396.398l-0.084,0.473l-0.494-0.309L454.481,396.398z
			 M418.846,426.632c2.484-4.886,41.646-23.58,42.608-20.622C461.763,406.968,417.696,428.684,418.846,426.632z M410.393,507.754
			c-0.087,0.013-0.052,0.005,0.183-0.044C410.509,507.724,410.455,507.739,410.393,507.754c0.524-0.078,6.014-1.015,5.749,0.228
			C415.158,512.867,404.998,508.99,410.393,507.754z M394.787,527.316c1.539-2.362,1.156,0.876,0.351,3.238
			c0.084,0,0.167,0.001,0.251,0.001c-0.312,0.544-0.637,1.082-0.974,1.61c0.253-0.382,0.503-0.966,0.722-1.611
			c-0.257,0-0.515,0-0.769-0.002C394.422,529.464,394.122,528.333,394.787,527.316z M387.527,473.74
			c0.059-0.377,0.121-0.751,0.179-1.125c0.346,0.374,0.693,0.748,1.039,1.125C388.337,473.74,387.932,473.74,387.527,473.74z
			 M387.342,469.605c0.176-0.065,0.386-0.099,0.63-0.102c-0.488,0.454-0.977,0.905-1.462,1.363
			C386.572,470.251,386.813,469.796,387.342,469.605z M382.589,511.653c0.939-2.089,4.512,1.375,0.574,2.29
			c0.053,0.037,0.081,0.08,0.139,0.117l-0.275-0.077c0.049-0.009,0.087-0.031,0.136-0.04
			C382.316,513.344,382.177,512.565,382.589,511.653z M372.124,499.641c5.1-8.499,6.719,1.523,7.411,3.341
			c3.996,0.433,1.045,4.824,0.173,0.544C378.803,502.92,368.744,505.275,372.124,499.641z M373.16,510.603
			c-1.478-7.763,13.184,7.98-2.658,2.93C371.948,512.67,373.481,512.312,373.16,510.603z M344.678,502.021
			c1.212-0.096,0.782,2.015-1.02,1.116C343.605,502.459,344.032,502.07,344.678,502.021z M327.276,489.396
			c0.303-0.167,0.767-0.272,0.88-0.513C328.043,489.124,327.579,489.229,327.276,489.396c-0.427-0.111-0.816-0.3-0.955-0.633
			C326.46,489.096,326.849,489.285,327.276,489.396z M297.515,497.172c0.828,0.361,1.658,0.722,2.483,1.084
			c0,0,0.003-0.001,0.005-0.002c0.35-0.195,0.705-0.386,1.061-0.581c1.78,1.088,2.487,1.539,2.357,2.111
			c0.13-0.572-0.578-1.023-2.357-2.111c-0.362,0.179-0.717,0.374-1.063,0.584c0,0-0.002-0.001-0.002-0.001
			c-2.087,0.769-4.171,1.538-6.256,2.303c-0.062-0.763-0.121-1.53-0.179-2.293C294.882,497.901,296.198,497.536,297.515,497.172z
			 M268.708,503.291c3.604-0.216,7.077,0.355,10.421,1.715c2.487-2.5,3.13-2.445,5.971-0.303c0.401,0.099,0.803,0.198,1.205,0.297
			c0.034,0.457,0.068,0.915,0.102,1.372c-1.527,0.117-3.05,0.232-4.577,0.349c-0.167,0.191-0.333,0.383-0.504,0.572
			C281.682,507.283,263.826,505.089,268.708,503.291z M243.247,487.412c3.39-0.13,7.012-1.248,9.314,1.431
			c-0.859,2.086-2.312,3.217-4.357,3.39c-0.099,1.381-0.198,2.763-0.296,4.141c-0.998-0.009-1.994-0.015-2.992-0.025
			c0.17-1.496,0.343-2.988,0.517-4.481c-1.789-0.093-3.581-0.185-5.371-0.281C239.819,488.092,240.224,487.533,243.247,487.412z
			 M217.67,504.153c2.182-1.721,4.08-1.437,5.696,0.85C223.823,508.832,215.55,508.229,217.67,504.153z M212.506,475.807
			c-0.405,0.235-0.63,0.083-0.68-0.451C212.153,475.384,212.379,475.535,212.506,475.807z M281.54,468.171
			c-2.858,1.208-6.462-1.966-3.27-2.998C279.396,465.365,286.488,466.075,281.54,468.171z M309.939,465.933
			c-1.051,1.038-1.879,1.06-2.482,0.065C308.192,465.513,309.021,465.488,309.939,465.933c0.049-0.018,0.099-0.04,0.148-0.059
			l0.052,0.077C310.074,465.946,310.006,465.94,309.939,465.933z M317.263,465.81c-0.071,0.148-0.303,0.232-0.464,0.343
			C315.313,465.312,317.754,464.787,317.263,465.81z M325.381,466.168c0.878-0.547,1.329-0.337,1.351,0.634
			C325.894,467.327,325.447,467.117,325.381,466.168z M330.314,471.274c-0.291-0.448-0.584-0.893-0.878-1.338
			C330.165,470.139,330.616,470.501,330.314,471.274z M396.558,411.433l-0.275-0.346l0.473-0.028L396.558,411.433z M424.575,373.804
			c-0.862,0.207-1.285-0.182-1.276-1.168l-0.009-0.003l0.003-0.009h0.003l0.003,0.009
			C424.328,372.552,424.754,372.942,424.575,373.804z M623.075,349.729c0.458-0.148,0.683,0.015,0.683,0.485
			C622.908,350.474,622.679,350.314,623.075,349.729z M678.526,354.016c-1.325,0.488-1.144-1.879-0.12-2.312
			C678.888,351.948,681.509,352.903,678.526,354.016z"/>
		<path style="fill:#fff;" d="M790.36,476.608c0.261-0.182,0.521-0.363,0.782-0.544
			C791.184,475.555,790.971,475.603,790.36,476.608z"/>
		<path style="fill:#fff;" d="M301.063,497.672c-0.356,0.195-0.711,0.386-1.061,0.581c-0.002,0.001-0.003,0.001-0.003,0.001
			c-0.001,0.001,0,0.001,0,0.001C300.346,498.046,300.701,497.852,301.063,497.672z"/>
		<path style="fill:#fff;" d="M787.307,483.842c-0.361,2.384,0.105,2.076,0.823,0.681
			C787.588,484.311,787.273,484.069,787.307,483.842z"/>
		<path style="fill:#fff;" d="M588.795,417.858c0.003-0.038,0.004-0.076,0.006-0.115c-0.907,0.783-1.971,1.447-2.123,1.44
			C587.503,419.221,588.227,418.736,588.795,417.858z"/>
		<path style="fill:#fff;" d="M837.298,404.894c-0.086-0.229-0.176-0.454-0.263-0.683c0,0.001,0,0.002,0,0.003
			C837.122,404.44,837.212,404.668,837.298,404.894z"/>
		<path style="fill:#fff;" d="M518.284,526.144c0.002-0.04,0.004-0.08,0.007-0.119c-0.907,0.784-1.973,1.449-2.127,1.442
			C516.989,527.504,517.712,527.019,518.284,526.144z"/>
		<path style="fill:#fff;" d="M395.389,530.555c-0.085,0-0.167-0.001-0.251-0.001c-0.22,0.645-0.469,1.229-0.722,1.611
			C394.752,531.636,395.077,531.099,395.389,530.555z"/>
		<polygon style="fill:#fff;" points="610.815,427.34 610.815,427.337 610.812,427.337 		"/>
		<path style="fill:#fff;" d="M201.946,531.346L201.946,531.346L201.946,531.346z"/>
		<path style="fill:#fff;" d="M182.365,457.296c-2.608-5.903-10.232,2.849-12.578,5.38c-17.6-7.303-61.101-19.507-73.929-5.04
			c-12.282,13.848-11.027,54.494,3.996,66.2c8.789,6.848,16.806,3.848,27.984,3.294c-0.081-0.751,0.034-1.319,0.264-1.764
			c-16.196,1.409-30.692-0.709-34.979-20.682c1.119-0.111,2.21-0.346,3.279-0.701c0.117,1.397,4.178,18.839,7.333,16.846
			c-0.077,0.046-4.199-15.86-4.085-17.69c2.086-0.312,5.18-2.373,7.331-3.341c0.451,2.151,0.779,4.314,1.236,6.481
			c-1.641,0.315-6.827,2.791-6.03,4.262c0.677,1.252,5.535-0.318,6.737-0.674c0.102,0.995,2.021,6.926,3.771,6.283
			c1.823-0.668-0.859-5.668-1.048-6.719c14.448-4.222,30.685-9.376,44.827-14.763c0.235,2.361,1.218,4.639,1.456,6.873
			c-3.805,1.456-7.776,2.593-11.763,3.563c0.019-0.584,2.371-4.762-0.309-4.429c-2.503,0.312-3.056,3.733-3.087,5.214
			c-3.83,0.893-7.427,2.049-11.216,3.016c0.133-0.182,0.278-0.358,0.374-0.528c0.065-0.516,1.712-2.639,1.533-2.778
			c-2.639-2.528-4.814,1.978-4.614,3.227c-0.041,0.142-0.087,0.29-0.13,0.439c-2.603,0.652-7.031,2.123-9.218,3.965
			c0.247-0.609,0.742-0.906,1.078-1.456c0.473-4.682-3.442-0.708-3.016,0.764c-0.235,0.556-0.379,3.198-0.225,3.542
			c0.448,1.023,2.905,0.121,2.756-0.717c2.683-0.049,7.062-0.769,9.212-2.321c0.04,0.087,0.056,0.176,0.046,0.272
			c0.819-0.315,2.039-0.056,2.846,0.504c0.04-0.167-0.47-1.156-0.538-1.437c3.703-0.374,8.02-2.744,11.459-3.832
			c-0.343,2.12,1.119,4.163,1.437,6.147c-1.712,0.21-17.711,3.292-16.648,5.696c1.648,3.74,15.335-2.355,17.838-2.923
			c0.544,0.083,1.032-0.022,1.471-0.322c4.361-0.72,9.25-2.336,13.403-3.724c1.144,1.215,1.885,1.038,2.222-0.528
			c1.749-0.306,3.415-0.158,5.062-0.878c0.396,3.134,1.725,6.094,1.771,9.321c-4.494-0.185-9.172,0.161-13.629,0.674
			c-0.111,0.012-0.229,0.028-0.34,0.04c1.403-1.029,14.044-1.221,13.307-4.218c-0.124-0.498-21.287,1.332-21.089,2.135
			c0.294,1.18,2.63,2.009,3.761,2.516c-5.921,0.556-12.175,1.58-18.32,2.327c1.179,0.53,2.061,1.291,1.981,1.957
			c10.133-0.491,20.051-0.732,30.129-2.083c1.598-0.216,2.967-0.445,4.092-0.686c0.164,10.671,6.718,6.366,7.457-0.797
			c0.67-6.487-4.178-13.341-4.861-19.423c-0.878-7.844,0.974-34.224,8.051-39.502c-0.618,3.4-1.737,10.625-0.813,14.003
			c0.739,0.488,1.45,0.961,2.157,1.431C181.298,477.356,183.496,456.949,182.365,457.296z M93.014,484.81
			c1.86,2.037,10.21-4.784,11.573-5.433c-0.108,2.055,0.34,4.107,0.315,6.199c-2.757,1.116-11.676,8.041-5.186,5.699
			c0.086-0.145,0.179-0.3,0.294-0.479c0.09,0.09,0.164,0.185,0.241,0.281c1.545-0.55,3.09-1.304,4.694-1.681
			c0.188,2.423,0.609,4.812,0.967,7.213c-1.86,0.692-4.351,0.751-5.881,2.08c0.51-0.949,0.507-3.659-1.27-3.35
			c-0.627,0.108-3.079,3.931-2.605,4.948c-1.181,0.708-2.466,1.317-3.431,2.327c-1.663-9.991-1.084-20.258,1.657-29.993
			c4.688-1.079,7.936-3.749,12.343-5.445c-1.039,2.831-0.717,5.683-1.628,8.341C104.3,475.863,90.841,482.436,93.014,484.81z
			 M107.888,495.66c-0.232-2.398-0.365-4.803-0.353-7.216c0.634-0.439,1.224-0.936,1.771-1.49c1.014-0.8,3.687-1.316,5.063-1.953
			c0.942,2.54-0.606,6.008,0.559,8.428C112.588,494.161,109.986,494.301,107.888,495.66z M108.11,477.819
			c2.445-1.391,4.457-2.896,7.065-4.092c-0.151,0.634-0.439,1.385-0.309,2.049c0.358,1.82-0.544,3.736-0.6,5.615
			c-2.024,0.807-4.348,1.202-6.301,2.108C108.151,481.577,107.866,479.757,108.11,477.819z M147.167,514.404
			c-0.402-0.655-0.587-2.142-0.955-2.543c-1.051-1.267-0.692-2.553-0.251-4.225c4.083-1.329,8.063-2.395,12.093-3.662
			c0.47,2.191,0.507,5.507,1.518,7.405C155.852,512.856,151.191,514.113,147.167,514.404z M168.09,509.113
			c-1.805,0.173-4.119,0.828-5.866,1.317c-0.955-1.938-1.338-4.821-1.987-6.963c1.962-0.352,4.138-0.161,5.983-0.98
			c0.204,2.281,2.074,3.807,1.923,6.128C168.13,508.779,168.108,508.946,168.09,509.113z M165.93,499.628
			c-1.984,0.612-4.002,0.763-6.005,1.307c-1.242-5.418-1.162-11.014-0.281-16.602c-0.325,0.467-0.733,0.868-1.465,0.961
			c-3.161-1.737,1.227-6.425,2.439-4.568c-0.176-1.048,2.343-7.683-0.046-7.955c-5.125-0.584-4.271,17.016-4.269,19.448
			c-12.702,0.38-34.845,7.905-45.642,13.53c-0.674-2.228-0.968-4.775-1.809-6.885c1.839-1.301,32.354-11.249,32.116-12.436
			c-0.608-3.041-20.49,5.269-23.398,6.19c-0.751-1.82-1.354-6.576-1.208-8.554c3.168-1.576,6.283-2.806,9.578-4.122
			c0.884,1.119-0.68,5.597,2.216,4.929c2.342-0.544-0.021-4.456-0.241-5.693c2.892-1.06,29.739-8.146,29.594-9.287
			c-0.436-3.446-25.314,5.396-28.738,6.453c0.374-0.766,2.312-4.833,1.888-5.365c-2.905-4.58-4.836,5.816-4.951,6.289
			c-2.825,0.896-6.076,1.31-8.687,2.692c0.321-1.403,2.889-6.818,2.608-8.146c2.568-1.116,25.731-8.205,25.595-9.21
			c-0.479-3.588-21.404,5.096-24.294,6.125c0.695-3.835-4.345,0.028-5.034,1.836c-2.312,0.794-4.831,1.351-6.814,2.837
			c-0.315-2.593,1.193-4.874,1.181-7.565c1.357-0.593,2.698-1.227,4.073-1.783c-0.748-0.219-1.137-0.726-1.174-1.521
			c2.754,0.896,1.709,0.229,1.774-1.264c-1.437,1.264-3.514,1.589-5.293,2.12c-0.396-0.272-0.779-0.151-1.153,0.365
			c-3.819,1.218-9.129,4.46-12.865,4.935c0.603-1.731,1.251-3.393,1.962-5.022c2.339,0.334,18.447-2.704,18.098-5.099
			c-0.136-0.924-16.104,1.212-16.67,2.009c3.922-8.004,16.426-3.662,24.143-2.222c-2.244,0.497-6.014,1.249-7.85,2.624
			c0.893-0.253,1.895,0.899,2.16,1.582c2.04-0.213,8.944-1.4,9.896-3.437c13.675,2.151,27.416,4.082,41.165,6.271
			C168.934,476.225,164.693,487.718,165.93,499.628z M152.27,522.427c0.707-0.541,0.8-0.427,1.65-0.17
			C153.376,522.319,152.823,522.371,152.27,522.427z M170.528,472.813c-0.241-0.179-0.482-0.355-0.723-0.532
			c0.226-0.17,0.436-0.365,0.686-0.485C171.06,471.981,171.072,472.318,170.528,472.813z"/>
		<path style="fill:#fff;" d="M128.101,525.367c1.739-0.151,3.497-0.343,5.265-0.557
			C131.519,523.978,128.946,523.739,128.101,525.367z"/>
		<path style="fill:#fff;" d="M180.581,481.497c-0.343-0.074-0.64-0.182-0.918-0.309c-0.003,0.603-1.199,4.96-0.028,5.105
			c2.095,0.259,2.234-3.848,2.099-4.976C181.533,481.531,181.172,481.624,180.581,481.497z"/>
		<path style="fill:#fff;" d="M201.269,458.597c-3.427-0.427-2.794,11.87-3.384,13.972c0.294,0.226,0.578,0.454,0.674,0.736
			c-0.222,0.739-0.578,1.054-1.069,0.949c-0.121,3.174-1.9,38.757,1.276,38.485C197.375,512.856,201.491,458.625,201.269,458.597z"
			/>
		<path style="fill:#fff;" d="M191.538,483.673c-3.1,0.386,0.157,16.654,0.043,18.487c0.309,0.334,0.565,0.714,0.779,1.134
			c-0.278,0.09-0.547,0.192-0.807,0.3c0.275,2.429,2.151,21.482,4.336,21.182C195.487,524.831,193.493,483.431,191.538,483.673z"/>
		<path style="fill:#fff;" d="M186.797,471.503c-0.257,0.468-0.494,0.865-0.697,1.168
			C186.93,473.064,187.029,472.247,186.797,471.503z"/>
		<path style="fill:#fff;" d="M186.1,472.671c-0.152-0.072-0.323-0.175-0.527-0.337
			C185.214,473.636,185.512,473.548,186.1,472.671z"/>
		<path style="fill:#fff;" d="M189.108,459.02c-2.556-0.287-2.426,9.574-2.821,10.956c-0.059,0.192-0.115,0.38-0.173,0.563
			c0.289,0.103,0.544,0.519,0.684,0.965C188.871,467.732,192.234,459.378,189.108,459.02z"/>
		<path style="fill:#fff;" d="M187.461,507.083c-1.459-1.595-0.213-3.035,0.219-4.518c-0.219-2.12,0.269-26.13-1.471-26.241
			c-1.217-0.08-1.823,5.099-1.931,5.943c-0.522,4.429,2.76,47.068,5.6,46.653c1.286-0.188-1.919-21.117-1.972-22.508
			C187.748,506.625,187.6,506.851,187.461,507.083z"/>
		<path style="fill:#fff;" d="M803.278,629.786c-43.099,2.12-86.334,4.039-129.48,4.679c-0.226,0.603-3.498,0.053-4.008,0.059
			c-0.078,0.034-0.151,0.068-0.225,0.105c0.061-0.034,0.123-0.068,0.185-0.105c-45.179,0.677-91.091,1.242-136.125-3.01
			c-35.126-3.319-73.404-5.554-103.462-26.025c-1.27-0.816-2.538-1.635-3.808-2.454c-1.443,1.202,12.76,11.234,12.699,11.2
			c1.048-1.01,3.653,0.077,2.484,1.459c40.63,23.064,96.577,20.032,141.694,21.21c0.448-3.223,2.482-1.276,3.227,0.074
			c72.935,1.681,146.654-0.646,219.515-4.487C805.318,631.467,804.388,630.583,803.278,629.786z"/>
		<path style="fill:#fff;" d="M809.015,629.464c0.037,0.176,0.074,0.355,0.111,0.531c0.148,0.767,0.313,1.53,0.479,2.287
			c3.752-0.232,37.976-0.93,38.185-3.551C847.905,627.261,810.813,629.353,809.015,629.464z"/>
		<path style="fill:#fff;" d="M419.59,418.127c0.01-0.072,0.03-0.14,0.042-0.211C419.585,418.039,419.568,418.113,419.59,418.127
			z"/>
		<path style="fill:#fff;" d="M427.579,403.887c-2.973,3.715-4.981,7.031-6.224,9.494c-0.899,1.409-1.467,2.923-1.723,4.536
			C420.319,416.117,427.857,403.484,427.579,403.887z"/>
		<path style="fill:#fff;" d="M384.529,527.742c-19.902-12.757-45.451-13.644-68.333-14.571
			c-34.384-1.397-68.914-1.193-103.326-1.295c27.152,3.26,55.01,0.565,82.295,1.595c24.131,0.909,72.626-2.466,90.442,17.807
			c-0.349-0.711-0.695-1.422-1.044-2.132C384.56,528.675,384.554,528.209,384.529,527.742z"/>
		<path style="fill:#fff;" d="M384.529,527.742c0.025,0.464,0.031,0.933,0.034,1.403c1.396,0.359,2.305,1.143,2.571,2.488
			l-0.126,0.09v0.003c-0.328,0.006-0.656,0.025-0.983,0.05c1.406,1.635,12.254,18.484,12.884,18.227
			C403.079,548.346,387.521,529.661,384.529,527.742z"/>
		<path style="fill:#fff;" d="M407.785,563.635c0.077-1.023-0.652-4.042-1.984-3.777c-9.333,1.845,10.748,37.061,14.183,33.952
			C418.558,595.102,407.516,567.244,407.785,563.635z"/>
		<path style="fill:#fff;" d="M212.966,471.329c2.095,1.313,4.407,1.786,6.938,1.422c-0.068-0.269-0.071-0.575,0.031-0.643
			c0.866-0.563,1.765-1.069,2.643-1.564C221.95,470.517,213.074,470.078,212.966,471.329z"/>
		<path style="fill:#fff;" d="M367.139,474.077c-1.047,0.223-2.101,0.428-3.153,0.633
			C366.066,474.57,367.189,474.363,367.139,474.077z"/>
		<path style="fill:#fff;" d="M223.866,470.609c0.186,0.164,0.325,0.309,0.39,0.473c0.244,1.15-0.331,1.768-1.728,1.854
			c45.445,3.22,96.027,10.642,141.458,1.773C343.81,476.068,233.372,471.119,223.866,470.609z"/>
		<path style="fill:#fff;" d="M879.807,471.002c-8.159-2.098-7.266,45.176-6.87,47.095c0.504,2.358,3.514,27.372,7.083,26.287
			C875.326,545.812,874.687,469.688,879.807,471.002z"/>
		<path style="fill:#fff;" d="M425.261,560.594c-7.791-0.43,9.186,17.479,9.89,18.07c4.37,3.644,19.142,9.655,17.974,8.693
			C449.395,584.362,424.866,560.572,425.261,560.594z"/>
		<path style="fill:#fff;" d="M444.976,568.549c-1.515-1.233-3.829-1.826-5.755-2.03c0.13-0.358,0.303-0.674,0.52-0.893
			c-2.216-2.646-7.355-6.62-7.241-10.671c-1.045-0.232-2.065-0.466-3.057-0.714c-0.037,0.294-0.074,0.612-0.053,0.943
			c0.272,4.651,15.338,18.336,16.123,14.658C444.62,570.461,444.064,569.093,444.976,568.549z"/>
		<path style="fill:#fff;" d="M147.814,476.296c-0.377,0.646-1.023,3.44-0.912,3.984c0.015,0.077,0.389,0.408,0.467,0.47
			c3.662,2.92,1.925-2.34,1.91-2.543c0.38-0.958,1.02-1.28,1.644-2.049c0.108-0.399,1.839-2.318,1.623-2.457
			C150.169,471.768,147.736,475.282,147.814,476.296z"/>
		<path style="fill:#fff;" d="M821.914,570.319c0.819,0.331,0.729,0.819-0.272,1.468c-1.153-0.204-1.227-0.711-0.213-1.515
			c-25.777-2.549-51.978-6.23-77.125-12.479c-0.547,0.294-1.076,0.164-1.583-0.392c-19.683-5.001-39.141-11.911-52.618-28.111
			c-1.777-2.135-20.323-45.201-15.481-44.7c-9.988-1.656,16.621,49.283,17.418,50.087c17.211,17.387,40.831,22.959,64.083,27.48
			c10.18,2,120.951,19.797,121.844,13.363C877.944,575.697,825.521,570.678,821.914,570.319z"/>
		<path style="fill:#fff;" d="M734.946,575.932c-28.868-3.866-61.289-6.444-75.345-35.698c-2.061-4.29-8.01-58.24-3.78-56.03
			c-8.82-4.846,1.174,56.348,2.04,58.039c0.242,0.182,0.47,0.371,0.686,0.581c-0.216-0.21-0.444-0.399-0.686-0.581
			c2.127,4.175,4.543,8.595,7.668,12.13c0.785-0.198,1.542,0.006,2.271,0.615c-0.062,0.535-0.322,0.881-0.68,1.116
			c23.602,24.072,70.586,21.948,101.404,25.252c9.769,1.042,111.045,12.89,111.713,8.035
			C879.891,591.906,752.376,578.265,734.946,575.932z"/>
		<path style="fill:#fff;" d="M761.95,587.527c-36.832-3.229-101.305,1.48-118.596-41.523c-0.306,0.136-0.553-0.065-0.742-0.603
			c0.136-0.111,0.275-0.223,0.411-0.334c-4.685-13.515,3.424-27.304,0.708-40.099c-0.031-0.034-0.065-0.065-0.09-0.102
			c-0.349,0.105-1.929,4.079-3.285,11.175c-0.547,3.013-1.081,6.577-1.388,10.61c1.533,0.689,0.862,1.718-0.009,0.136
			c-1.246,16.725,5.205,28.905,17.755,40.265c0.794-0.738,1.579,0.417,1.381,1.215c25.966,22.155,72.301,18.163,103.877,20.688
			C761.582,588.544,761.703,588.031,761.95,587.527z"/>
		<path style="fill:#fff;" d="M764.45,587.743c0.102,0.47-0.003,0.93-0.315,1.385c10.893,0.875,114.117,12.887,115.257,8.502
			C879.186,598.436,775.666,588.723,764.45,587.743z"/>
		<path style="fill:#fff;" d="M719.135,593.056c-29.17-3.403-70.187-2.435-85.54-33.164c-5.721-11.45,5.269-46.357,1.934-50.313
			c-2.102-2.877-7.797,26.343-8.184,26.519c-7.55,64.705,90.485,58.839,127.898,62.075c0.826-0.485,1.409-0.433,1.753,0.151
			c11.381,0.989,121.024,13.403,122.042,9.055C878.528,609.534,737.736,595.225,719.135,593.056z"/>
		<path style="fill:#fff;" d="M615.673,547.982c-0.516-0.21-1.06-0.383-1.564-0.612c-0.087,1.656-0.068,3.31-0.04,4.966
			c0.624,0.244,1.372,0.618,2.317,1.116l0.244,0.012c-0.087-1.536-0.136-3.069-0.145-4.608
			C616.214,548.566,615.942,548.275,615.673,547.982z"/>
		<path style="fill:#fff;" d="M792.788,608.588c14.09,0.8,28.28,1.567,28.286,1.416
			C821.141,608.451,809.969,608.516,792.788,608.588z"/>
		<path style="fill:#fff;" d="M762.606,606.811c-35.732-2.284-76.857-2.886-110.876-13.595
			c-19.143-6.026-33.967-19.062-35.099-39.753l-0.244-0.012c-0.949-0.498-1.693-0.868-2.317-1.113
			c0.917,56.786,122.267,56.483,178.718,56.249c-13.042-0.741-25.998-1.51-27.54-1.607
			C764.503,609.58,762.5,607.086,762.606,606.811z"/>
		<path style="fill:#fff;" d="M614.537,543.269c-0.03,0.052-0.07,0.096-0.097,0.151
			C614.408,543.685,614.446,543.602,614.537,543.269z"/>
		<path style="fill:#fff;" d="M614.537,543.269c0.339-0.58,0.885-0.984,1.801-1.097c0.176-0.025,0.349-0.062,0.525-0.09
			c-0.04,0.368,3.755-17.458,3.81-17.427C619.009,523.523,615.218,540.764,614.537,543.269z"/>
		<path style="fill:#fff;" d="M595.49,562.745c0.735,0.229,1.458,0.538,2.225,0.658c0.043-1.789,7.249-29.171,10.503-35.156
			c-0.892,0.828-1.784,1.655-2.675,2.483C598.533,539.733,595.718,551.511,595.49,562.745z M601.636,540.203
			c-0.371,0.309-1.325-0.933,0.016-0.485C601.652,539.891,601.726,540.132,601.636,540.203z"/>
		<path style="fill:#fff;" d="M608.217,528.247c0.392-0.364,0.784-0.728,1.176-1.092
			C609.121,526.905,608.713,527.334,608.217,528.247z"/>
		<path style="fill:#fff;" d="M628.576,598.81c-14.612-5.504-29.232-15.109-30.781-32.28c-0.844-0.018-1.378-0.495-2.293-1.656
			c0.488,18.861,17.269,29.384,32.882,35.342c3.616,1.381,40.133,11.07,40.81,6.852C669.079,607.785,632.241,600.192,628.576,598.81
			z"/>
		<path style="fill:#fff;" d="M427.579,403.887c2.584-3.242,5.464-6.212,8.647-8.907c1.397-1.19,2.896-2.373,4.488-3.545
			C435.543,394.232,431.35,398.367,427.579,403.887z"/>
	</g>
</g>
</svg>
